<svg width="261" height="318" viewBox="0 0 261 318" fill="none" xmlns="http://www.w3.org/2000/svg">
<path d="M244.871 0C255.623 1.8251e-05 260.999 5.39467 260.999 16.1836V154.513C260.999 155.815 260.921 157.039 260.764 158.184C260.523 159.94 260.352 161.715 260.352 163.487V301.816C260.352 312.605 254.975 318 244.224 318H16.1279C5.37594 318 0 312.605 0 301.816V163.487C0 162.184 0.078158 160.96 0.234761 159.814C0.474721 158.058 0.647461 156.285 0.647461 154.513V16.1836C0.647461 5.39465 6.0234 0 16.7754 0H244.871ZM41.209 60.418C37.5696 60.418 34.2484 62.7138 33.591 66.2933C33.5066 66.7529 33.4688 67.227 33.4688 67.6943V87.335C33.4688 117.158 57.6454 141.335 87.4688 141.335H109.885C120.637 141.335 126.013 146.73 126.013 157.519C126.013 168.307 120.637 173.702 109.885 173.702H87.4688C57.6454 173.702 33.4688 197.879 33.4688 227.702V254.898C33.4688 255.072 33.49 255.246 33.5335 255.414C33.7676 256.32 34.5982 256.931 35.5333 256.931H99.4103C106.405 256.931 112.895 252.308 112.896 245.313V208.955C112.896 198.166 118.271 192.771 129.023 192.771C139.775 192.771 145.151 198.166 145.151 208.955V244.161C145.151 245.829 145.25 247.474 145.442 249.09C146.007 253.848 150.404 256.931 155.196 256.931C159.245 256.931 163.286 257.64 167.335 257.64H217.234C222.391 257.64 227.156 254.373 227.783 249.255V230.723C227.783 200.899 203.607 176.723 173.783 176.723H151.367C140.615 176.723 135.239 171.328 135.239 160.539C135.239 149.75 140.616 144.356 151.367 144.355H173.783C203.607 144.355 227.783 120.179 227.783 90.3555V64.2825C227.783 64.037 227.757 63.7905 227.701 63.5513C227.365 62.1003 226.038 61.127 224.549 61.127H161.511C154.555 61.127 148.104 65.7302 148.104 72.6865V109.045C148.104 119.834 142.727 125.228 131.976 125.229C121.224 125.229 115.847 119.834 115.847 109.045V73.8389C115.847 72.1113 115.741 70.4086 115.535 68.7367C114.967 64.121 110.706 61.127 106.056 61.127C102.007 61.127 97.9657 60.418 93.9172 60.418H41.209Z" fill="#4DE1CD"/>
</svg>
