<svg xmlns="http://www.w3.org/2000/svg" width="775" height="723" fill="none"><g fill="#4ADBC8" clip-path="url(#a)"><path d="M361.667 73.467c-23.333 2.266-56.533 10.133-73.2 17.466l-7.2 3.2 13.467 5.734c28.933 12.266 59.333 32.266 83.066 54.533l11.467 10.8 6.533-6.8c23.334-23.867 60.267-48.667 92-61.6l7.867-3.2-4-1.6c-40.933-16.267-86.4-22.667-130-18.533ZM170.334 117.067c-8.534 4-31.6 30.533-48.934 56-3.6 5.466-6.4 10-6.133 10.266.267.267 5.2 1.467 11.067 2.667 52.133 10.667 97.6 43.467 125.333 90.533 6.267 10.667 13.6 27.334 16.8 38 1.6 5.467 2.4 6.134 10.533 9.867 22.4 10.133 44 28.933 58.8 51.333 4.934 7.6 10.4 17.334 12.134 21.6 2.933 7.6 3.066 7.867 12.8 12.134 5.333 2.266 13.333 6.533 17.733 9.333l7.867 5.2 7.866-5.2c4.4-2.8 12.4-7.067 17.867-9.467 8.667-3.733 10-4.933 11.467-9.2 2.666-7.2 9.866-19.866 17.866-31.066l7.334-10.134-23.067-49.066c-27.2-58.4-32.4-68.934-40.4-81.2-13.6-21.334-35.6-45.6-54.267-60.134-40.133-31.2-91.066-50-144-53.2-11.466-.666-14.133-.4-18.666 1.734ZM574.067 116.133C531.667 120.133 491 135.2 457 159.2c-12.267 8.533-34.133 27.6-38.667 33.467l-3.6 4.8 6.934 10.8c8.133 12.533 17.6 31.2 35.066 69.066C472.6 311.733 481.8 331.2 482.2 331.6c.267.267 5.733-2.267 12.4-5.467 11.333-5.733 12-6.266 13.6-11.733 3.2-10.533 10.533-27.333 16.8-37.867C552.6 229.6 598.333 196.667 650.333 186c5.867-1.2 10.8-2.4 11.067-2.667 1.467-1.466-23.067-34.266-38.267-51.2-16.133-17.866-19.333-18.933-49.066-16ZM56.333 225.6C46.867 232 47 230.667 47 301.333c0 34.8.667 69.867 1.333 78 6 64.934 28.534 122.934 68.4 176.667 12 16.133 48.4 52.533 64.934 64.933 48.266 36 102.133 58.4 160.666 66.534 23.067 3.2 57.6 3.333 67.867.133 14.4-4.533 25.067-10.533 35.067-20 17.333-16.533 25.6-33.867 26.666-56.267 1.067-21.6-3.2-36.533-15.066-53.466C446.6 543.2 433 532.933 415.4 526.667l-8.267-2.934-2.133-7.6c-10.667-38.266-37.867-65.733-74.933-76l-8.8-2.266-2.8-10c-7.734-26.267-26.667-50.934-49.2-63.734-7.734-4.4-19.734-9.066-26.134-10.133-6.533-1.067-7.6-2.267-8.8-10.667-1.466-10.133-7.066-26.8-12.933-38.666-19.467-38.934-53.867-66.667-97.067-78.267-7.866-2.133-15.733-2.8-36.666-3.333-26.4-.667-26.667-.667-31.334 2.533Z"/><path d="M667 223.6c-40 6.4-74.133 26.933-97.733 58.4-13.2 17.733-24.267 43.067-26.933 61.333-1.2 7.6-2.667 10-6.134 10-4 0-20.933 6.267-27.733 10.267-24 13.867-42.4 37.467-50.267 64.267l-2.8 10-9.2 2.4c-5.066 1.466-13.6 4.666-18.933 7.2l-9.6 4.666 5.333 8c3.067 4.4 8.267 13.6 11.6 20.534 6 12.4 6 12.533 16.134 18.4 38.133 22.4 61.6 63.333 61.6 107.6 0 19.6-5.467 41.466-14.667 58.266-2.133 4.134-3.733 7.867-3.333 8.134 2.8 2.8 57.333-23.2 79.333-37.734 82-54.533 134.933-133.866 150.533-225.466 4.667-27.067 5.467-43.2 5.467-108.534 0-70.666.133-69.466-9.2-75.6-4.267-2.933-5.733-3.066-27.333-2.933-12.534.133-24.267.533-26.134.8Z"/></g><defs><clipPath id="a"><path fill="#fff" d="M47 40h682.667v682.667H47z"/></clipPath></defs></svg>