<svg width="775" height="723" viewBox="0 0 775 723" fill="none" xmlns="http://www.w3.org/2000/svg">

<g clip-path="url(#clip0_29_2)">
<path d="M361.667 73.4667C338.334 75.7333 305.134 83.6 288.467 90.9333L281.267 94.1333L294.734 99.8667C323.667 112.133 354.067 132.133 377.8 154.4L389.267 165.2L395.8 158.4C419.134 134.533 456.067 109.733 487.8 96.8L495.667 93.6L491.667 92C450.734 75.7333 405.267 69.3333 361.667 73.4667Z" fill="#4ADBC8"/>
<path d="M170.334 117.067C161.8 121.067 138.734 147.6 121.4 173.067C117.8 178.533 115 183.067 115.267 183.333C115.534 183.6 120.467 184.8 126.334 186C178.467 196.667 223.934 229.467 251.667 276.533C257.934 287.2 265.267 303.867 268.467 314.533C270.067 320 270.867 320.667 279 324.4C301.4 334.533 323 353.333 337.8 375.733C342.734 383.333 348.2 393.067 349.934 397.333C352.867 404.933 353 405.2 362.734 409.467C368.067 411.733 376.067 416 380.467 418.8L388.334 424L396.2 418.8C400.6 416 408.6 411.733 414.067 409.333C422.734 405.6 424.067 404.4 425.534 400.133C428.2 392.933 435.4 380.267 443.4 369.067L450.734 358.933L427.667 309.867C400.467 251.467 395.267 240.933 387.267 228.667C373.667 207.333 351.667 183.067 333 168.533C292.867 137.333 241.934 118.533 189 115.333C177.534 114.667 174.867 114.933 170.334 117.067Z" fill="#4ADBC8"/>
<path d="M574.067 116.133C531.667 120.133 491 135.2 457 159.2C444.733 167.733 422.867 186.8 418.333 192.667L414.733 197.467L421.667 208.267C429.8 220.8 439.267 239.467 456.733 277.333C472.6 311.733 481.8 331.2 482.2 331.6C482.467 331.867 487.933 329.333 494.6 326.133C505.933 320.4 506.6 319.867 508.2 314.4C511.4 303.867 518.733 287.067 525 276.533C552.6 229.6 598.333 196.667 650.333 186C656.2 184.8 661.133 183.6 661.4 183.333C662.867 181.867 638.333 149.067 623.133 132.133C607 114.267 603.8 113.2 574.067 116.133Z" fill="#4ADBC8"/>
<path d="M56.3334 225.6C46.8668 232 47.0001 230.667 47.0001 301.333C47.0001 336.133 47.6668 371.2 48.3334 379.333C54.3334 444.267 76.8668 502.267 116.733 556C128.733 572.133 165.133 608.533 181.667 620.933C229.933 656.933 283.8 679.333 342.333 687.467C365.4 690.667 399.933 690.8 410.2 687.6C424.6 683.067 435.267 677.067 445.267 667.6C462.6 651.067 470.867 633.733 471.933 611.333C473 589.733 468.733 574.8 456.867 557.867C446.6 543.2 433 532.933 415.4 526.667L407.133 523.733L405 516.133C394.333 477.867 367.133 450.4 330.067 440.133L321.267 437.867L318.467 427.867C310.733 401.6 291.8 376.933 269.267 364.133C261.533 359.733 249.533 355.067 243.133 354C236.6 352.933 235.533 351.733 234.333 343.333C232.867 333.2 227.267 316.533 221.4 304.667C201.933 265.733 167.533 238 124.333 226.4C116.467 224.267 108.6 223.6 87.6668 223.067C61.2668 222.4 61.0001 222.4 56.3334 225.6Z" fill="#4ADBC8"/>
<path d="M667 223.6C627 230 592.867 250.533 569.267 282C556.067 299.733 545 325.067 542.334 343.333C541.134 350.933 539.667 353.333 536.2 353.333C532.2 353.333 515.267 359.6 508.467 363.6C484.467 377.467 466.067 401.067 458.2 427.867L455.4 437.867L446.2 440.267C441.134 441.733 432.6 444.933 427.267 447.467L417.667 452.133L423 460.133C426.067 464.533 431.267 473.733 434.6 480.667C440.6 493.067 440.6 493.2 450.734 499.067C488.867 521.467 512.334 562.4 512.334 606.667C512.334 626.267 506.867 648.133 497.667 664.933C495.534 669.067 493.934 672.8 494.334 673.067C497.134 675.867 551.667 649.867 573.667 635.333C655.667 580.8 708.6 501.467 724.2 409.867C728.867 382.8 729.667 366.667 729.667 301.333C729.667 230.667 729.8 231.867 720.467 225.733C716.2 222.8 714.734 222.667 693.134 222.8C680.6 222.933 668.867 223.333 667 223.6Z" fill="#4ADBC8"/>
</g>
<defs>
<clipPath id="clip0_29_2">
<rect width="682.667" height="682.667" fill="white" transform="translate(47 40)"/>
</clipPath>
</defs>
</svg>
